<svg width="156" height="46" viewBox="0 0 156 46" fill="none" xmlns="http://www.w3.org/2000/svg">
<g clip-path="url(#clip0_924_832)">
<path d="M25.6641 1.85017C25.8507 2.28551 25.9253 2.75711 25.8507 3.22872C25.7761 3.70033 25.5522 4.13566 25.2165 4.46216L8.54219 22.5647H25.6268V27.4622H2.83488C2.34994 27.4622 1.90231 27.317 1.45468 27.0631C1.04435 26.8092 0.708621 26.4464 0.522107 26.0111C0.298291 25.5757 0.223686 25.1041 0.335594 24.6325C0.410199 24.1609 0.634016 23.7256 0.932437 23.3991L17.6441 5.29655H0.522107V0.362793H23.3514C23.8363 0.362793 24.2839 0.507903 24.7316 0.761847C25.1419 1.05207 25.4403 1.41484 25.6641 1.85017Z" fill="#CC273D"/>
<path fill-rule="evenodd" clip-rule="evenodd" d="M50.9553 0.362793V5.29655H33.05V20.6057C33.05 21.2587 33.2365 21.7303 33.5723 22.0931C33.908 22.4196 34.4302 22.601 35.1017 22.601H50.9553V27.4984H35.0644C34.3556 27.4984 33.6096 27.3896 32.7889 27.1357C31.9682 26.8817 31.1849 26.5189 30.4761 25.9385C29.7674 25.3943 29.1705 24.6688 28.7229 23.7981C28.238 22.9275 28.0142 21.8391 28.0142 20.5694V2.86595C28.0142 2.53945 28.0888 2.21295 28.2007 1.88645C28.3126 1.59623 28.4991 1.30601 28.7229 1.08834C28.9467 0.870679 29.2078 0.689291 29.5436 0.544181C29.8047 0.435348 30.1404 0.362793 30.5134 0.362793H50.9553Z" fill="#CC273D"/>
<path d="M50.9554 11.4637H35.0645V16.4337H50.9554V11.4637Z" fill="#CC273D"/>
<path fill-rule="evenodd" clip-rule="evenodd" d="M53.0068 0.362793H69.5692C70.6883 0.362793 71.6582 0.544181 72.4416 0.943235C73.2249 1.34229 73.8591 1.85017 74.344 2.43062C74.8289 3.01106 75.1647 3.66405 75.3885 4.35333C75.6123 5.0426 75.7242 5.6956 75.7242 6.31232V7.40065C75.7242 8.52525 75.575 9.54103 75.3139 10.4117C75.0154 11.2824 74.6424 12.0805 74.1575 12.7335C73.6725 13.4227 73.113 13.9669 72.4789 14.4748C71.8447 14.9464 71.1733 15.3454 70.5018 15.6719C69.7931 15.9622 69.1216 16.2161 68.4129 16.3612C67.7041 16.5063 67.0327 16.5789 66.4358 16.5789L76.9925 27.4984H69.1589L58.5649 16.5426H54.9466V11.6451H66.3612C66.9954 11.6088 67.5922 11.4637 68.1144 11.2461C68.6367 11.0284 69.0843 10.7745 69.4573 10.4117C69.8304 10.0489 70.1288 9.64986 70.3526 9.14197C70.5764 8.63409 70.651 8.08992 70.651 7.43693V6.38487C70.651 6.09465 70.6137 5.87699 70.5391 5.76816C70.4645 5.62304 70.3899 5.51421 70.278 5.44166C70.1661 5.3691 70.0542 5.33282 69.9423 5.33282L69.6066 5.29655H53.0441V0.362793H53.0068Z" fill="#CC273D"/>
<path d="M102.769 11.3548C102.769 10.3753 102.62 9.50468 102.284 8.70657C101.948 7.90846 101.538 7.25547 100.941 6.67502C100.382 6.13086 99.6728 5.69553 98.8521 5.36903C98.0315 5.04253 97.1362 4.89742 96.1663 4.89742H89.3399C88.37 4.89742 87.4748 5.04253 86.6541 5.36903C85.8335 5.69553 85.162 6.09458 84.5652 6.67502C83.9683 7.21919 83.5207 7.90846 83.2223 8.70657C82.9239 9.50468 82.7373 10.3753 82.7373 11.3548V16.5425C82.7373 17.522 82.8865 18.3927 83.2223 19.1908C83.558 19.9889 84.0056 20.6419 84.5652 21.2223C85.162 21.7665 85.8335 22.2018 86.6541 22.5283C87.4748 22.8186 88.37 22.9999 89.3399 22.9999H96.129C97.0989 22.9999 98.0314 22.8548 98.8148 22.5283C99.6355 22.2018 100.307 21.7665 100.904 21.2223C101.501 20.6782 101.948 19.9889 102.247 19.1908C102.545 18.3927 102.732 17.522 102.732 16.5425V11.3548H102.769ZM107.842 16.5063C107.842 18.1387 107.544 19.6624 106.984 21.0772C106.387 22.4558 105.604 23.6529 104.559 24.6687C103.515 25.6845 102.284 26.4463 100.866 27.0268C99.449 27.5709 97.9195 27.8611 96.2409 27.8611H89.4145C87.7359 27.8611 86.2065 27.5709 84.7517 27.0268C83.3342 26.4826 82.1032 25.6845 81.0587 24.6687C80.0142 23.6529 79.1936 22.4558 78.634 21.0772C78.0372 19.6987 77.7388 18.175 77.7388 16.5063V11.3548C77.7388 9.72234 78.0372 8.19868 78.634 6.82014C79.2309 5.44159 80.0515 4.24443 81.0587 3.22865C82.1032 2.21288 83.3342 1.45105 84.7517 0.870609C86.1692 0.290168 87.7359 0.0362244 89.4145 0.0362244H96.2409C97.9195 0.0362244 99.449 0.326445 100.866 0.870609C102.284 1.45105 103.515 2.21288 104.559 3.22865C105.604 4.24443 106.387 5.44159 106.984 6.82014C107.581 8.19868 107.842 9.72234 107.842 11.3548V16.5063Z" fill="#CC273D"/>
<path d="M137.759 25.3943C137.759 25.7571 137.684 26.0836 137.572 26.3738C137.423 26.664 137.237 26.9543 137.013 27.1719C136.789 27.3896 136.528 27.571 136.192 27.6798C135.894 27.7887 135.558 27.8612 135.185 27.8612C134.887 27.8612 134.551 27.7887 134.252 27.6798C133.917 27.571 133.656 27.3896 133.394 27.1357L114.93 8.38013V27.4622H109.856V2.46689C109.856 1.959 110.006 1.48739 110.304 1.08834C110.603 0.689283 110.976 0.362785 111.423 0.181397C111.908 8.54989e-06 112.393 -0.0362691 112.915 0.0362861C113.438 0.145119 113.848 0.362785 114.221 0.725561L132.686 19.4448V0.362785H137.722V25.3943H137.759Z" fill="#CC273D"/>
<path d="M156 22.5647H139.848V27.4622H156V22.5647Z" fill="#CC273D"/>
<path d="M156 11.4637H139.848V16.4337H156V11.4637Z" fill="#CC273D"/>
<path d="M156 0.362793H139.848V5.29655H156V0.362793Z" fill="#CC273D"/>
<g opacity="0.8">
<path d="M2.42468 45.4195C1.67862 45.0205 1.08178 44.4763 0.634146 43.7871C0.186514 43.0978 0 42.2997 0 41.429C0 40.5583 0.223816 39.7602 0.634146 39.071C1.08178 38.3817 1.64132 37.8375 2.42468 37.4385C3.17073 37.0394 4.02869 36.858 4.96126 36.858C5.74462 36.858 6.45337 37.0031 7.12482 37.2571C7.75897 37.511 8.31851 37.9101 8.72884 38.418L7.38594 39.6514C6.75179 38.9621 6.00574 38.5994 5.07317 38.5994C4.51363 38.5994 3.99139 38.7082 3.54376 38.9621C3.09613 39.2161 2.7604 39.5426 2.49928 39.9779C2.23816 40.4132 2.12626 40.8848 2.12626 41.4653C2.12626 42.0457 2.23816 42.5173 2.49928 42.9527C2.7604 43.388 3.09613 43.7145 3.54376 43.9684C3.99139 44.2224 4.47633 44.3312 5.07317 44.3312C6.00574 44.3312 6.75179 43.9684 7.38594 43.2792L8.72884 44.5126C8.28121 45.0205 7.75897 45.4195 7.12482 45.7098C6.49067 45.9637 5.74462 46.1088 4.96126 46.1088C4.02869 46 3.17073 45.8186 2.42468 45.4195Z" fill="white"/>
<path d="M19.2479 45.4195C18.5019 45.0205 17.905 44.4763 17.4574 43.7871C17.0098 43.0978 16.8232 42.2997 16.8232 41.429C16.8232 40.5583 17.0471 39.7602 17.4574 39.071C17.905 38.3817 18.5019 37.8375 19.2479 37.4385C19.994 37.0394 20.8519 36.858 21.8218 36.858C22.7544 36.858 23.6123 37.0394 24.3957 37.4385C25.1418 37.8375 25.7386 38.3817 26.1862 39.071C26.6339 39.7602 26.8577 40.5583 26.8577 41.429C26.8577 42.2997 26.6339 43.0978 26.1862 43.7871C25.7386 44.4763 25.1418 45.0205 24.3957 45.4195C23.6496 45.8186 22.7917 46 21.8218 46C20.8519 46 19.994 45.8186 19.2479 45.4195ZM23.2766 43.8959C23.7242 43.6419 24.06 43.3154 24.2838 42.8801C24.5449 42.4448 24.6568 41.9732 24.6568 41.3927C24.6568 40.8123 24.5449 40.3407 24.2838 39.9054C24.0227 39.47 23.6869 39.1435 23.2766 38.8896C22.829 38.6356 22.344 38.5268 21.8218 38.5268C21.2996 38.5268 20.7773 38.6356 20.367 38.8896C19.9194 39.1435 19.5836 39.47 19.3598 39.9054C19.0987 40.3407 18.9868 40.8123 18.9868 41.3927C18.9868 41.9732 19.0987 42.4448 19.3598 42.8801C19.6209 43.3154 19.9567 43.6419 20.367 43.8959C20.8146 44.1498 21.2996 44.2587 21.8218 44.2587C22.344 44.2587 22.829 44.1498 23.2766 43.8959Z" fill="white"/>
<path d="M44.2037 36.9669V45.8549H42.4504L37.8995 40.4495V45.8549H35.8105V36.9669H37.5638L42.1147 42.3722V36.9669H44.2037Z" fill="white"/>
<path d="M54.7229 45.7098C54.0514 45.5284 53.4919 45.2744 53.0815 44.9842L53.7903 43.4243C54.2006 43.7145 54.6483 43.9322 55.1705 44.1136C55.6927 44.2949 56.2523 44.3675 56.7745 44.3675C57.3714 44.3675 57.819 44.2949 58.1174 44.1136C58.4158 43.9322 58.565 43.7145 58.565 43.4243C58.565 43.2066 58.4904 43.0252 58.3039 42.8801C58.1174 42.735 57.9309 42.6262 57.6325 42.5536C57.3714 42.4811 56.9983 42.3722 56.5507 42.2634C55.8419 42.1183 55.2824 41.9369 54.8348 41.7918C54.3871 41.6467 54.0141 41.3565 53.6784 41.03C53.3427 40.6672 53.1935 40.1956 53.1935 39.6151C53.1935 39.1072 53.3427 38.6356 53.6411 38.2003C53.9395 37.765 54.3498 37.4385 54.9467 37.2208C55.5435 36.9669 56.215 36.858 57.0729 36.858C57.6698 36.858 58.2293 36.9306 58.7889 37.0757C59.3484 37.2208 59.8333 37.4022 60.2437 37.6561L59.5722 39.2161C58.7143 38.7445 57.8936 38.5268 57.0356 38.5268C56.4388 38.5268 55.9912 38.6356 55.73 38.817C55.4316 38.9984 55.3197 39.2524 55.3197 39.5426C55.3197 39.8328 55.4689 40.0867 55.8046 40.2319C56.1404 40.377 56.6253 40.5221 57.2968 40.6672C58.0055 40.8123 58.565 40.9937 59.0127 41.1388C59.4603 41.2839 59.8333 41.5378 60.1691 41.9006C60.5048 42.2634 60.654 42.735 60.654 43.3154C60.654 43.8233 60.5048 44.2949 60.2064 44.694C59.9079 45.1293 59.4603 45.4558 58.9008 45.6735C58.3039 45.9274 57.5952 46.0363 56.7745 46.0363C56.0658 46 55.3943 45.9274 54.7229 45.7098Z" fill="white"/>
<path d="M70.5769 44.9479C69.8681 44.2587 69.4951 43.2429 69.4951 41.9369V36.9669H71.6214V41.8643C71.6214 43.4605 72.2928 44.2587 73.673 44.2587C74.3445 44.2587 74.8294 44.0773 75.2024 43.6782C75.5382 43.2792 75.7247 42.6987 75.7247 41.8643V36.9669H77.8136V41.9369C77.8136 43.2429 77.4406 44.2587 76.7318 44.9479C76.0231 45.6372 74.9786 46 73.673 46C72.3674 46 71.2856 45.6735 70.5769 44.9479Z" fill="white"/>
<path d="M87.2886 36.9669H89.4148V44.1861H94.0031V45.8549H87.2886V36.9669Z" fill="white"/>
<path d="M103.627 38.6356H100.717V36.9669H108.7V38.6356H105.79V45.8549H103.664V38.6356H103.627Z" fill="white"/>
<path d="M117.242 36.9669H119.368V45.8549H117.242V36.9669Z" fill="white"/>
<path d="M137.349 36.9669V45.8549H135.595L131.045 40.4495V45.8549H128.956V36.9669H130.709L135.26 42.3722V36.9669H137.349Z" fill="white"/>
<path d="M153.09 41.2839H155.03V44.8754C154.545 45.2382 153.948 45.5284 153.314 45.7098C152.643 45.8912 152.008 46 151.337 46C150.404 46 149.546 45.8186 148.763 45.4195C148.017 45.0205 147.42 44.4763 146.973 43.7871C146.525 43.0978 146.338 42.2997 146.338 41.429C146.338 40.5583 146.562 39.7602 146.973 39.071C147.383 38.3817 148.017 37.8375 148.763 37.4385C149.546 37.0394 150.404 36.858 151.337 36.858C152.12 36.858 152.866 37.0031 153.501 37.2571C154.172 37.511 154.694 37.9101 155.142 38.418L153.799 39.6514C153.127 38.9984 152.344 38.6356 151.449 38.6356C150.852 38.6356 150.33 38.7445 149.882 38.9984C149.435 39.2524 149.061 39.5789 148.838 40.0142C148.577 40.4495 148.465 40.9574 148.465 41.5016C148.465 42.0457 148.577 42.5536 148.838 42.9889C149.099 43.4243 149.435 43.7508 149.882 44.0047C150.33 44.2587 150.852 44.3675 151.412 44.3675C152.008 44.3675 152.568 44.2587 153.053 44.0047V41.2839H153.09Z" fill="white"/>
</g>
</g>
<defs>
<clipPath id="clip0_924_832">
<rect width="156" height="46" fill="white"/>
</clipPath>
</defs>
</svg>
